<svg xmlns="http://www.w3.org/2000/svg" xmlns:xlink="http://www.w3.org/1999/xlink" width="34.307"
  height="76.594" viewBox="0 0 34.307 76.594">
  <defs>
    <filter id="a" x="0" y="24.144" width="34.307" height="34.307" filterUnits="userSpaceOnUse">
      <feOffset dy="3" input="SourceAlpha" />
      <feGaussianBlur stdDeviation="3" result="b" />
      <feFlood flood-opacity="0.161" />
      <feComposite operator="in" in2="b" />
      <feComposite in="SourceGraphic" />
    </filter>
    <filter id="c" x="0" y="24.144" width="34.307" height="34.307" filterUnits="userSpaceOnUse">
      <feOffset dy="3" input="SourceAlpha" />
      <feGaussianBlur stdDeviation="3" result="d" />
      <feFlood flood-opacity="0.161" result="e" />
      <feComposite operator="out" in="SourceGraphic" in2="d" />
      <feComposite operator="in" in="e" />
      <feComposite operator="in" in2="SourceGraphic" />
    </filter>
  </defs>
  <g transform="translate(-4135.347 138.5)">
    <path d="M0,0V72.594" transform="translate(4152.5 -136.5)" fill="none" stroke="#adb5bd"
      stroke-linecap="round" stroke-width="4" stroke-dasharray="7 9" />
    <g transform="translate(-2.693 -0.436)">
      <g data-type="innerShadowGroup">
        <g transform="matrix(1, 0, 0, 1, 4138.04, -138.06)" filter="url(#a)">
          <path d="M16.869,8.716A8.153,8.153,0,1,1,8.716.563,8.153,8.153,0,0,1,16.869,8.716Z"
            transform="translate(8.44 29.58)" fill="#fff" />
        </g>
        <g transform="matrix(1, 0, 0, 1, 4138.04, -138.06)" filter="url(#c)">
          <path d="M16.869,8.716A8.153,8.153,0,1,1,8.716.563,8.153,8.153,0,0,1,16.869,8.716Z"
            transform="translate(8.44 29.58)" fill="#fff" />
        </g>
      </g>
      <path
        d="M14.7,4.01A7.108,7.108,0,0,0,4.653,14.062,7.108,7.108,0,0,0,14.7,4.01Zm.3,5.026a5.3,5.3,0,0,1-.987,3.087L6.591,4.692A5.328,5.328,0,0,1,15.01,9.036Zm-10.662,0a5.3,5.3,0,0,1,.987-3.087l7.431,7.431A5.329,5.329,0,0,1,4.348,9.036Z"
        transform="translate(4145.515 -108.803)" fill="#ed4c87" />
    </g>
  </g>
</svg>